<svg width="185" height="26" viewBox="0 0 185 26" fill="none" xmlns="http://www.w3.org/2000/svg">
<path d="M4.0736e-06 25.8999V-9.72152e-05H23.3408V6.8449H8.54084V10.1441H22.7858V15.7557H8.54084V19.0549H23.3408V25.8999H4.0736e-06ZM33.7871 25.8999L24.2596 -9.72152e-05H33.0779L39.3062 17.8832H40.2312L46.4596 -9.72152e-05H55.2779L45.7504 25.8999H33.7871ZM56.5117 25.8999V-9.72152e-05H79.8526V6.8449H65.0526V10.1441H79.2976V15.7557H65.0526V19.0549H79.8526V25.8999H56.5117ZM82.0215 25.8999V-9.72152e-05H91.8265L100.429 13.9982H101.2V-9.72152e-05H109.525V25.8999H99.9357L91.1173 11.9016H90.3465V25.8999H82.0215ZM138.697 -9.72152e-05V7.1224H129.385V25.8999H120.844V7.1224H111.532V-9.72152e-05H138.697ZM140.701 25.8999V-9.72152e-05H149.242V18.7774H163.055V25.8999H140.701ZM184.919 -9.72152e-05L174.312 17.8524V25.8999H165.771V17.8216L155.195 -9.72152e-05H164.168L169.718 9.74324H170.396L175.946 -9.72152e-05H184.919Z" fill="white"/>
</svg>
